# Blender 4.5.0 Beta
# www.blender.org
o Cube.001
v -1.061822 -1.038659 -0.258316
v -0.822247 -0.804310 0.258316
v -1.061822 1.038659 -0.258316
v -0.822247 0.804310 0.258316
v 1.061822 -1.038659 -0.258316
v 0.822247 -0.804310 0.258316
v 1.061822 1.038659 -0.258316
v 0.822247 0.804310 0.258316
v -1.061822 -1.038659 0.258316
v -1.061822 1.038659 0.258316
v 1.061822 1.038659 0.258316
v 1.061822 -1.038659 0.258316
v -0.822247 -0.804310 0.026932
v -0.822247 0.804310 0.026932
v 0.822247 0.804310 0.026932
v 0.822247 -0.804310 0.026932
v -0.822247 -0.804310 0.026932
v -0.822247 0.804310 0.026932
v 0.822247 0.804310 0.026932
v 0.822247 -0.804310 0.026932
v -0.822247 -0.804310 0.026932
v -0.822247 0.804310 0.026932
v 0.822247 0.804310 0.026932
v 0.822247 -0.804310 0.026932
v -0.822247 -0.804310 -0.239541
v -0.822247 0.804310 -0.239541
v 0.822247 0.804310 -0.239541
v 0.822247 -0.804310 -0.239541
vn -0.5774 -0.5774 -0.5774
vn 0.3015 0.3015 0.9045
vn -0.5774 0.5774 -0.5774
vn 0.3015 -0.3015 0.9045
vn 0.5774 -0.5774 -0.5774
vn -0.3015 0.3015 0.9045
vn 0.5774 0.5774 -0.5774
vn -0.3015 -0.3015 0.9045
vn -0.5773 -0.5773 0.5774
vn -0.5773 0.5773 0.5774
vn 0.5773 0.5773 0.5774
vn 0.5773 -0.5773 0.5774
vn 0.4082 0.4082 0.8165
vn 0.4082 -0.4082 0.8165
vn -0.4082 -0.4082 0.8165
vn -0.4082 0.4082 0.8165
vn -0.0000 -0.0000 1.0000
vn 0.5774 0.5774 0.5774
vn 0.5774 -0.5774 0.5774
vn -0.5774 -0.5774 0.5774
vn -0.5774 0.5774 0.5774
s 1
f 1//1 9//9 10//10 3//3
f 3//3 10//10 11//11 7//7
f 7//7 11//11 12//12 5//5
f 5//5 12//12 9//9 1//1
f 3//3 7//7 5//5 1//1
f 6//6 8//8 15//15 16//16
f 2//2 4//4 10//10 9//9
f 4//4 8//8 11//11 10//10
f 8//8 6//6 12//12 11//11
f 6//6 2//2 9//9 12//12
f 13//13 16//16 24//16 21//13
f 4//4 2//2 13//13 14//14
f 2//2 6//6 16//16 13//13
f 8//8 4//4 14//14 15//15
f 19//17 18//17 17//17 20//17
f 24//16 23//15 27//20 28//21
f 15//15 14//14 22//14 23//15
f 16//16 15//15 23//15 24//16
f 14//14 13//13 21//13 22//14
f 27//20 26//19 25//18 28//21
f 22//14 21//13 25//18 26//19
f 21//13 24//16 28//21 25//18
f 23//15 22//14 26//19 27//20
