# Blender 4.5.0 Beta
# www.blender.org
o domain.001
v -4.654721 -3.505175 -0.911624
v -4.654721 -3.505175 9.697913
v -4.654721 3.476307 -0.911624
v -4.654721 3.476307 9.697913
v 4.132756 -3.505175 -0.911624
v 4.132756 -3.505175 9.697913
v 4.132756 3.476307 -0.911624
v 4.132756 3.476307 9.697913
vn -0.5774 -0.5774 -0.5774
vn -0.5774 -0.5774 0.5774
vn -0.5774 0.5774 -0.5774
vn -0.5774 0.5774 0.5774
vn 0.5774 -0.5774 -0.5774
vn 0.5774 -0.5774 0.5774
vn 0.5774 0.5774 -0.5774
vn 0.5774 0.5774 0.5774
s 1
f 1//1 2//2 4//4 3//3
f 3//3 4//4 8//8 7//7
f 7//7 8//8 6//6 5//5
f 5//5 6//6 2//2 1//1
f 3//3 7//7 5//5 1//1
f 8//8 4//4 2//2 6//6
