# Blender 4.5.0 Beta
# www.blender.org
o Domain.001
v -7.581222 -2.447466 -0.429739
v -7.581222 -2.447466 6.512312
v -7.581222 2.427310 -0.429739
v -7.581222 2.427310 6.512312
v 6.731089 -2.447466 -0.429739
v 6.731089 -2.447466 6.512312
v 6.731089 2.427310 -0.429739
v 6.731089 2.427310 6.512312
v -7.581222 -2.447466 -0.429739
v -7.581222 -2.447466 6.512312
v -7.581222 2.427310 -0.429739
v -7.581222 2.427310 6.512312
vn -0.0000 -0.7071 -0.7071
vn -0.0000 -0.7071 0.7071
vn -0.0000 0.7071 -0.7071
vn -0.0000 0.7071 0.7071
vn 0.5774 -0.5774 -0.5774
vn 0.5774 -0.5774 0.5774
vn 0.5774 0.5774 -0.5774
vn 0.5774 0.5774 0.5774
vn -1.0000 -0.0000 -0.0000
s 1
f 3//3 4//4 8//8 7//7
f 7//7 8//8 6//6 5//5
f 5//5 6//6 2//2 1//1
f 3//3 7//7 5//5 1//1
f 8//8 4//4 2//2 6//6
f 9//9 10//9 12//9 11//9
