# Blender 4.5.0 Beta
# www.blender.org
o Cube_002.001
v -7.581222 -2.447466 -0.443902
v -7.581222 -2.447466 2.759058
v -7.581222 2.427310 -0.443902
v -7.581222 2.427310 2.759058
v 6.731089 -2.447466 -0.443902
v 6.731089 -2.447466 2.759058
v 6.731089 2.427310 -0.443902
v 6.731089 2.427310 2.759058
v -7.581222 -2.447466 -0.443902
v -7.581222 -2.447466 2.759058
v -7.581222 2.427310 -0.443902
v -7.581222 2.427310 2.759058
vn -0.0000 -0.7071 -0.7071
vn -0.0000 -0.7071 0.7071
vn -0.0000 0.7071 -0.7071
vn -0.0000 0.7071 0.7071
vn 0.5774 -0.5774 -0.5774
vn 0.5774 -0.5774 0.5774
vn 0.5774 0.5774 -0.5774
vn 0.5774 0.5774 0.5774
vn -1.0000 -0.0000 -0.0000
s 1
f 3//3 4//4 8//8 7//7
f 7//7 8//8 6//6 5//5
f 5//5 6//6 2//2 1//1
f 3//3 7//7 5//5 1//1
f 8//8 4//4 2//2 6//6
f 9//9 10//9 12//9 11//9
