# Blender 4.5.0 Beta
# www.blender.org
o Plane.001
v -7.514147 -1.501620 -0.105758
v -7.523393 -1.501620 2.352302
v -7.514147 1.705163 -0.105758
v -7.523393 1.705163 2.352302
v -7.228942 -1.501620 -0.104685
v -7.238189 -1.501620 2.353375
v -7.228942 1.705163 -0.104685
v -7.238189 1.705163 2.353375
vn -1.0000 -0.0000 -0.0038
vn 1.0000 -0.0000 0.0038
vn 0.0038 -0.0000 -1.0000
vn -0.0000 -1.0000 -0.0000
vn -0.0038 -0.0000 1.0000
vn -0.0000 1.0000 -0.0000
s 0
f 1//1 2//1 4//1 3//1
f 5//2 7//2 8//2 6//2
f 1//3 3//3 7//3 5//3
f 2//4 1//4 5//4 6//4
f 4//5 2//5 6//5 8//5
f 3//6 4//6 8//6 7//6
