# Blender 4.5.0 Beta
# www.blender.org
o Sphere.001
v -2.836305 1.742084 1.231913
v -2.836305 2.064319 0.909678
v -2.836305 2.238711 0.488658
v -2.836305 2.261153 0.260804
v -2.836305 2.238711 0.032950
v -2.836305 2.064319 -0.388070
v -2.791853 1.316686 1.406305
v -2.749109 1.531574 1.339842
v -2.709716 1.729616 1.231913
v -2.675188 1.903201 1.086664
v -2.646852 2.045659 0.909678
v -2.625795 2.151515 0.707756
v -2.612829 2.216700 0.488658
v -2.608451 2.238711 0.260804
v -2.612829 2.216700 0.032950
v -2.625795 2.151515 -0.186148
v -2.646852 2.045659 -0.388070
v -2.675188 1.903201 -0.565056
v -2.709716 1.729616 -0.710305
v -2.749109 1.531574 -0.818234
v -2.791853 1.316686 -0.884697
v -2.749109 1.303720 1.406305
v -2.665264 1.506140 1.339842
v -2.587992 1.692691 1.231913
v -2.520262 1.856205 1.086664
v -2.464678 1.990397 0.909678
v -2.423375 2.090111 0.707756
v -2.397941 2.151515 0.488658
v -2.389353 2.172248 0.260804
v -2.397941 2.151515 0.032950
v -2.423375 2.090111 -0.186148
v -2.464678 1.990397 -0.388070
v -2.520262 1.856205 -0.565056
v -2.587992 1.692691 -0.710305
v -2.665264 1.506140 -0.818234
v -2.749109 1.303720 -0.884697
v -2.709716 1.282664 1.406305
v -2.587992 1.464837 1.339842
v -2.475810 1.632729 1.231913
v -2.377482 1.779888 1.086664
v -2.296786 1.900657 0.909678
v -2.236824 1.990397 0.707756
v -2.199899 2.045659 0.488658
v -2.187431 2.064319 0.260804
v -2.199899 2.045659 0.032950
v -2.236824 1.990397 -0.186148
v -2.296786 1.900657 -0.388070
v -2.377482 1.779888 -0.565056
v -2.475810 1.632729 -0.710305
v -2.587992 1.464837 -0.818234
v -2.709716 1.282664 -0.884697
v -2.675188 1.254327 1.406305
v -2.520262 1.409253 1.339842
v -2.377482 1.552033 1.231913
v -2.252334 1.677181 1.086664
v -2.149628 1.779887 0.909678
v -2.073310 1.856205 0.707756
v -2.026314 1.903201 0.488658
v -2.010445 1.919070 0.260804
v -2.026314 1.903201 0.032950
v -2.073310 1.856205 -0.186148
v -2.149628 1.779887 -0.388070
v -2.252334 1.677181 -0.565056
v -2.377482 1.552033 -0.710305
v -2.520262 1.409253 -0.818234
v -2.675188 1.254327 -0.884697
v -2.646852 1.219799 1.406305
v -2.464678 1.341523 1.339842
v -2.296786 1.453705 1.231913
v -2.149628 1.552033 1.086664
v -2.028858 1.632729 0.909678
v -1.939118 1.692692 0.707756
v -1.883856 1.729616 0.488658
v -1.865196 1.742084 0.260804
v -1.883856 1.729616 0.032950
v -1.939118 1.692692 -0.186148
v -2.028858 1.632729 -0.388070
v -2.149628 1.552033 -0.565056
v -2.296786 1.453705 -0.710305
v -2.464678 1.341523 -0.818234
v -2.646852 1.219799 -0.884697
v -2.836305 1.093210 1.428747
v -2.625795 1.180406 1.406305
v -2.423375 1.264251 1.339842
v -2.236824 1.341523 1.231913
v -2.073310 1.409253 1.086664
v -1.939118 1.464837 0.909678
v -1.839404 1.506140 0.707756
v -1.778000 1.531574 0.488658
v -1.757267 1.540162 0.260804
v -1.778000 1.531574 0.032950
v -1.839404 1.506140 -0.186148
v -1.939118 1.464837 -0.388070
v -2.073310 1.409253 -0.565056
v -2.236824 1.341523 -0.710305
v -2.423375 1.264251 -0.818234
v -2.625795 1.180406 -0.884697
v -2.612829 1.137662 1.406305
v -2.397941 1.180406 1.339842
v -2.199899 1.219799 1.231913
v -2.026314 1.254327 1.086664
v -1.883856 1.282664 0.909678
v -1.778000 1.303720 0.707756
v -1.712815 1.316686 0.488658
v -1.690805 1.321064 0.260804
v -1.712815 1.316686 0.032950
v -1.778000 1.303720 -0.186148
v -1.883856 1.282664 -0.388070
v -2.026314 1.254327 -0.565056
v -2.199899 1.219799 -0.710305
v -2.397941 1.180406 -0.818234
v -2.612829 1.137662 -0.884697
v -2.608451 1.093210 1.406305
v -2.389353 1.093210 1.339842
v -2.187431 1.093210 1.231913
v -2.010445 1.093210 1.086664
v -1.865197 1.093210 0.909678
v -1.757267 1.093210 0.707756
v -1.690804 1.093210 0.488658
v -1.668363 1.093210 0.260804
v -1.690804 1.093210 0.032950
v -1.757267 1.093210 -0.186148
v -1.865197 1.093210 -0.388070
v -2.010445 1.093210 -0.565056
v -2.187431 1.093210 -0.710305
v -2.389353 1.093210 -0.818234
v -2.608451 1.093210 -0.884697
v -2.612829 1.048758 1.406305
v -2.397941 1.006014 1.339842
v -2.199899 0.966621 1.231913
v -2.026314 0.932093 1.086664
v -1.883856 0.903756 0.909678
v -1.778000 0.882700 0.707756
v -1.712815 0.869734 0.488658
v -1.690805 0.865355 0.260804
v -1.712815 0.869734 0.032950
v -1.778000 0.882700 -0.186148
v -1.883856 0.903756 -0.388070
v -2.026314 0.932093 -0.565056
v -2.199899 0.966621 -0.710305
v -2.397941 1.006014 -0.818234
v -2.612829 1.048758 -0.884697
v -2.625796 1.006014 1.406305
v -2.423375 0.922169 1.339842
v -2.236824 0.844896 1.231913
v -2.073310 0.777167 1.086664
v -1.939118 0.721583 0.909678
v -1.839404 0.680280 0.707756
v -1.778001 0.654846 0.488658
v -1.757267 0.646258 0.260804
v -1.778001 0.654846 0.032950
v -1.839404 0.680280 -0.186148
v -1.939118 0.721583 -0.388070
v -2.073310 0.777167 -0.565056
v -2.236824 0.844896 -0.710305
v -2.423375 0.922169 -0.818234
v -2.625796 1.006014 -0.884697
v -2.646852 0.966621 1.406305
v -2.464678 0.844896 1.339842
v -2.296786 0.732715 1.231913
v -2.149628 0.634387 1.086664
v -2.028858 0.553691 0.909678
v -1.939118 0.493728 0.707756
v -1.883856 0.456804 0.488658
v -1.865197 0.444336 0.260804
v -1.883856 0.456804 0.032950
v -1.939118 0.493728 -0.186148
v -2.028858 0.553691 -0.388070
v -2.149628 0.634387 -0.565056
v -2.296786 0.732715 -0.710305
v -2.464678 0.844896 -0.818234
v -2.646852 0.966621 -0.884697
v -2.675188 0.932093 1.406305
v -2.520262 0.777167 1.339842
v -2.377482 0.634387 1.231913
v -2.252334 0.509239 1.086664
v -2.149628 0.406532 0.909678
v -2.073310 0.330215 0.707756
v -2.026314 0.283218 0.488658
v -2.010446 0.267350 0.260804
v -2.026314 0.283218 0.032950
v -2.073310 0.330215 -0.186148
v -2.149628 0.406532 -0.388070
v -2.252334 0.509239 -0.565056
v -2.377482 0.634387 -0.710305
v -2.520262 0.777167 -0.818234
v -2.675188 0.932093 -0.884697
v -2.709716 0.903756 1.406305
v -2.587992 0.721583 1.339842
v -2.475811 0.553691 1.231913
v -2.377482 0.406532 1.086664
v -2.296786 0.285763 0.909678
v -2.236824 0.196022 0.707756
v -2.199899 0.140761 0.488658
v -2.187432 0.122101 0.260804
v -2.199899 0.140761 0.032950
v -2.236824 0.196022 -0.186148
v -2.296786 0.285763 -0.388070
v -2.377482 0.406532 -0.565056
v -2.475811 0.553691 -0.710305
v -2.587992 0.721583 -0.818234
v -2.709716 0.903756 -0.884697
v -2.749109 0.882700 1.406305
v -2.665264 0.680280 1.339842
v -2.587992 0.493728 1.231913
v -2.520262 0.330215 1.086664
v -2.464678 0.196023 0.909678
v -2.423375 0.096309 0.707756
v -2.397941 0.034905 0.488658
v -2.389354 0.014172 0.260804
v -2.397941 0.034905 0.032950
v -2.423375 0.096309 -0.186148
v -2.464678 0.196023 -0.388070
v -2.520262 0.330215 -0.565056
v -2.587992 0.493728 -0.710305
v -2.665264 0.680280 -0.818234
v -2.749109 0.882700 -0.884697
v -2.791853 0.869734 1.406305
v -2.749109 0.654846 1.339842
v -2.709717 0.456804 1.231913
v -2.675188 0.283218 1.086664
v -2.646852 0.140761 0.909678
v -2.625795 0.034905 0.707756
v -2.612829 -0.030280 0.488658
v -2.608452 -0.052291 0.260804
v -2.612829 -0.030280 0.032950
v -2.625795 0.034905 -0.186148
v -2.646852 0.140761 -0.388070
v -2.675188 0.283218 -0.565056
v -2.709717 0.456804 -0.710305
v -2.749109 0.654846 -0.818234
v -2.791853 0.869734 -0.884697
v -2.836305 0.865356 1.406305
v -2.836305 0.646258 1.339842
v -2.836305 0.444336 1.231913
v -2.836305 0.267350 1.086664
v -2.836306 0.122101 0.909678
v -2.836305 0.014172 0.707756
v -2.836306 -0.052291 0.488658
v -2.836306 -0.074732 0.260804
v -2.836306 -0.052291 0.032950
v -2.836305 0.014172 -0.186148
v -2.836306 0.122101 -0.388070
v -2.836305 0.267350 -0.565056
v -2.836305 0.444336 -0.710305
v -2.836305 0.646258 -0.818234
v -2.836305 0.865356 -0.884697
v -2.880758 0.869734 1.406305
v -2.923501 0.654846 1.339842
v -2.962894 0.456804 1.231913
v -2.997423 0.283218 1.086664
v -3.025759 0.140761 0.909678
v -3.046815 0.034905 0.707756
v -3.059782 -0.030280 0.488658
v -3.064160 -0.052290 0.260804
v -3.059782 -0.030280 0.032950
v -3.046815 0.034905 -0.186148
v -3.025759 0.140761 -0.388070
v -2.997423 0.283218 -0.565056
v -2.962894 0.456804 -0.710305
v -2.923501 0.654846 -0.818234
v -2.880758 0.869734 -0.884697
v -2.923501 0.882700 1.406305
v -3.007347 0.680280 1.339842
v -3.084619 0.493729 1.231913
v -3.152348 0.330215 1.086664
v -3.207933 0.196023 0.909678
v -3.249235 0.096309 0.707756
v -3.274670 0.034905 0.488658
v -3.283258 0.014172 0.260804
v -3.274670 0.034905 0.032950
v -3.249235 0.096309 -0.186148
v -3.207933 0.196023 -0.388070
v -3.152348 0.330215 -0.565056
v -3.084619 0.493729 -0.710305
v -3.007347 0.680280 -0.818234
v -2.923501 0.882700 -0.884697
v -2.962894 0.903756 1.406305
v -3.084619 0.721583 1.339842
v -3.196800 0.553691 1.231913
v -3.295129 0.406532 1.086664
v -3.375824 0.285763 0.909678
v -3.435787 0.196023 0.707756
v -3.472712 0.140761 0.488658
v -3.485179 0.122102 0.260804
v -3.472712 0.140761 0.032950
v -3.435787 0.196023 -0.186148
v -3.375824 0.285763 -0.388070
v -3.295129 0.406532 -0.565056
v -3.196800 0.553691 -0.710305
v -3.084619 0.721583 -0.818234
v -2.962894 0.903756 -0.884697
v -2.997423 0.932093 1.406305
v -3.152348 0.777167 1.339842
v -3.295129 0.634387 1.231913
v -3.420277 0.509239 1.086664
v -3.522983 0.406533 0.909678
v -3.599300 0.330215 0.707756
v -3.646297 0.283219 0.488658
v -3.662165 0.267351 0.260804
v -3.646297 0.283219 0.032950
v -3.599300 0.330215 -0.186148
v -3.522983 0.406533 -0.388070
v -3.420277 0.509239 -0.565056
v -3.295129 0.634387 -0.710305
v -3.152348 0.777167 -0.818234
v -2.997423 0.932093 -0.884697
v -2.836305 1.093210 -0.907139
v -3.025759 0.966621 1.406305
v -3.207932 0.844897 1.339842
v -3.375824 0.732715 1.231913
v -3.522983 0.634387 1.086664
v -3.643753 0.553691 0.909678
v -3.733493 0.493728 0.707756
v -3.788754 0.456804 0.488658
v -3.807414 0.444337 0.260804
v -3.788754 0.456804 0.032950
v -3.733493 0.493728 -0.186148
v -3.643753 0.553691 -0.388070
v -3.522983 0.634387 -0.565056
v -3.375824 0.732715 -0.710305
v -3.207932 0.844897 -0.818234
v -3.025759 0.966621 -0.884697
v -3.046815 1.006014 1.406305
v -3.249235 0.922169 1.339842
v -3.435787 0.844897 1.231913
v -3.599301 0.777167 1.086664
v -3.733493 0.721583 0.909678
v -3.833206 0.680280 0.707756
v -3.894610 0.654846 0.488658
v -3.915343 0.646258 0.260804
v -3.894610 0.654846 0.032950
v -3.833206 0.680280 -0.186148
v -3.733493 0.721583 -0.388070
v -3.599301 0.777167 -0.565056
v -3.435787 0.844897 -0.710305
v -3.249235 0.922169 -0.818234
v -3.046815 1.006014 -0.884697
v -3.059781 1.048758 1.406305
v -3.274669 1.006014 1.339842
v -3.472711 0.966621 1.231913
v -3.646297 0.932093 1.086664
v -3.788754 0.903756 0.909678
v -3.894610 0.882700 0.707756
v -3.959795 0.869734 0.488658
v -3.981805 0.865356 0.260804
v -3.959795 0.869734 0.032950
v -3.894610 0.882700 -0.186148
v -3.788754 0.903756 -0.388070
v -3.646297 0.932093 -0.565056
v -3.472711 0.966621 -0.710305
v -3.274669 1.006014 -0.818234
v -3.059781 1.048758 -0.884697
v -3.064159 1.093210 1.406305
v -3.283257 1.093210 1.339842
v -3.485179 1.093210 1.231913
v -3.662165 1.093210 1.086664
v -3.807414 1.093210 0.909678
v -3.915343 1.093210 0.707756
v -3.981806 1.093210 0.488658
v -4.004247 1.093210 0.260804
v -3.981806 1.093210 0.032950
v -3.915343 1.093210 -0.186148
v -3.807414 1.093210 -0.388070
v -3.662165 1.093210 -0.565056
v -3.485179 1.093210 -0.710305
v -3.283257 1.093210 -0.818234
v -3.064159 1.093210 -0.884697
v -3.059781 1.137662 1.406305
v -3.274669 1.180406 1.339842
v -3.472711 1.219799 1.231913
v -3.646297 1.254327 1.086664
v -3.788754 1.282664 0.909678
v -3.894610 1.303720 0.707756
v -3.959795 1.316686 0.488658
v -3.981805 1.321064 0.260804
v -3.959795 1.316686 0.032950
v -3.894610 1.303720 -0.186148
v -3.788754 1.282664 -0.388070
v -3.646297 1.254327 -0.565056
v -3.472711 1.219799 -0.710305
v -3.274669 1.180406 -0.818234
v -3.059781 1.137662 -0.884697
v -3.046815 1.180406 1.406305
v -3.249235 1.264251 1.339842
v -3.435786 1.341523 1.231913
v -3.599300 1.409253 1.086664
v -3.733492 1.464837 0.909678
v -3.833206 1.506140 0.707756
v -3.894610 1.531574 0.488658
v -3.915342 1.540162 0.260804
v -3.894610 1.531574 0.032950
v -3.833206 1.506140 -0.186148
v -3.733492 1.464837 -0.388070
v -3.599300 1.409253 -0.565056
v -3.435786 1.341523 -0.710305
v -3.249235 1.264251 -0.818234
v -3.046815 1.180406 -0.884697
v -3.025759 1.219799 1.406305
v -3.207932 1.341523 1.339842
v -3.375824 1.453705 1.231913
v -3.522983 1.552033 1.086664
v -3.643752 1.632729 0.909678
v -3.733493 1.692691 0.707756
v -3.788754 1.729616 0.488658
v -3.807413 1.742084 0.260804
v -3.788754 1.729616 0.032950
v -3.733493 1.692691 -0.186148
v -3.643752 1.632729 -0.388070
v -3.522983 1.552033 -0.565056
v -3.375824 1.453705 -0.710305
v -3.207932 1.341523 -0.818234
v -3.025759 1.219799 -0.884697
v -2.997422 1.254327 1.406305
v -3.152348 1.409253 1.339842
v -3.295128 1.552033 1.231913
v -3.420277 1.677181 1.086664
v -3.522982 1.779887 0.909678
v -3.599300 1.856205 0.707756
v -3.646296 1.903201 0.488658
v -3.662164 1.919070 0.260804
v -3.646296 1.903201 0.032950
v -3.599300 1.856205 -0.186148
v -3.522982 1.779887 -0.388070
v -3.420277 1.677181 -0.565056
v -3.295128 1.552033 -0.710305
v -3.152348 1.409253 -0.818234
v -2.997422 1.254327 -0.884697
v -2.962894 1.282664 1.406305
v -3.084619 1.464837 1.339842
v -3.196800 1.632729 1.231913
v -3.295129 1.779887 1.086664
v -3.375824 1.900657 0.909678
v -3.435787 1.990397 0.707756
v -3.472711 2.045659 0.488658
v -3.485178 2.064318 0.260804
v -3.472711 2.045659 0.032950
v -3.435787 1.990397 -0.186148
v -3.375824 1.900657 -0.388070
v -3.295129 1.779887 -0.565056
v -3.196800 1.632729 -0.710305
v -3.084619 1.464837 -0.818234
v -2.962894 1.282664 -0.884697
v -2.923501 1.303720 1.406305
v -3.007346 1.506140 1.339842
v -3.084618 1.692691 1.231913
v -3.152348 1.856205 1.086664
v -3.207932 1.990397 0.909678
v -3.249235 2.090111 0.707756
v -3.274669 2.151514 0.488658
v -3.283257 2.172247 0.260804
v -3.274669 2.151514 0.032950
v -3.249235 2.090111 -0.186148
v -3.207932 1.990397 -0.388070
v -3.152348 1.856205 -0.565056
v -3.084618 1.692691 -0.710305
v -3.007346 1.506140 -0.818234
v -2.923501 1.303720 -0.884697
v -2.880758 1.316686 1.406305
v -2.923501 1.531574 1.339842
v -2.962894 1.729615 1.231913
v -2.997423 1.903201 1.086664
v -3.025759 2.045659 0.909678
v -3.046815 2.151514 0.707756
v -3.059781 2.216700 0.488658
v -3.064159 2.238710 0.260804
v -3.059781 2.216700 0.032950
v -3.046815 2.151514 -0.186148
v -3.025759 2.045659 -0.388070
v -2.997423 1.903201 -0.565056
v -2.962894 1.729615 -0.710305
v -2.923501 1.531574 -0.818234
v -2.880758 1.316686 -0.884697
v -2.836305 1.321064 1.406305
v -2.836305 1.540162 1.339842
v -2.836305 1.919070 1.086664
v -2.836305 2.172248 0.707756
v -2.836305 2.172248 -0.186148
v -2.836305 1.919070 -0.565056
v -2.836305 1.742083 -0.710305
v -2.836305 1.540162 -0.818234
v -2.836305 1.321064 -0.884697
vn 0.0938 0.9527 -0.2890
vn 0.0464 0.4709 0.8810
vn 0.0865 0.8786 -0.4696
vn 0.0624 0.6332 0.7715
vn 0.0759 0.7708 -0.6326
vn 0.0759 0.7708 0.6326
vn 0.0624 0.6332 -0.7715
vn 0.0865 0.8786 0.4696
vn 0.0464 0.4709 -0.8810
vn 0.0938 0.9527 0.2890
vn 0.0286 0.2902 -0.9565
vn 0.0976 0.9904 0.0976
vn 0.0097 0.0980 0.9951
vn 0.0097 0.0980 -0.9951
vn 0.0976 0.9904 -0.0976
vn 0.0286 0.2902 0.9565
vn 0.0286 0.0942 0.9951
vn 0.0286 0.0942 -0.9951
vn 0.2889 0.9524 -0.0976
vn 0.0846 0.2790 0.9565
vn 0.2779 0.9161 -0.2890
vn 0.1374 0.4528 0.8810
vn 0.2563 0.8448 -0.4696
vn 0.1847 0.6088 0.7715
vn 0.2248 0.7412 -0.6326
vn 0.2248 0.7412 0.6326
vn 0.1847 0.6088 -0.7715
vn 0.2563 0.8448 0.4696
vn 0.1374 0.4528 -0.8810
vn 0.2779 0.9161 0.2890
vn 0.0846 0.2790 -0.9565
vn 0.2889 0.9524 0.0976
vn 0.3651 0.6831 0.6326
vn 0.2999 0.5611 -0.7715
vn 0.4162 0.7786 0.4696
vn 0.2230 0.4173 -0.8810
vn 0.4513 0.8443 0.2890
vn 0.1374 0.2571 -0.9565
vn 0.4691 0.8777 0.0975
vn 0.0464 0.0869 0.9951
vn 0.0464 0.0869 -0.9951
vn 0.4691 0.8777 -0.0975
vn 0.1374 0.2571 0.9565
vn 0.4513 0.8443 -0.2890
vn 0.2231 0.4173 0.8810
vn 0.4162 0.7786 -0.4696
vn 0.2999 0.5611 0.7715
vn 0.3651 0.6831 -0.6326
vn 0.6314 0.7693 -0.0975
vn 0.1850 0.2254 0.9565
vn 0.6073 0.7400 -0.2890
vn 0.3002 0.3658 0.8810
vn 0.5601 0.6825 -0.4696
vn 0.4036 0.4918 0.7715
vn 0.4913 0.5987 -0.6326
vn 0.4913 0.5987 0.6326
vn 0.4036 0.4918 -0.7715
vn 0.5601 0.6825 0.4696
vn 0.3002 0.3658 -0.8810
vn 0.6073 0.7400 0.2890
vn 0.1850 0.2254 -0.9565
vn 0.6314 0.7693 0.0975
vn 0.0625 0.0761 0.9951
vn 0.0625 0.0761 -0.9951
vn 0.4918 0.4036 -0.7715
vn 0.6825 0.5601 0.4696
vn 0.3658 0.3002 -0.8810
vn 0.7400 0.6073 0.2890
vn 0.2254 0.1850 -0.9565
vn 0.7693 0.6314 0.0976
vn 0.0761 0.0625 0.9951
vn 0.0761 0.0625 -0.9951
vn 0.7693 0.6314 -0.0976
vn 0.2254 0.1850 0.9565
vn 0.7400 0.6073 -0.2890
vn 0.3658 0.3002 0.8810
vn 0.6825 0.5601 -0.4696
vn 0.4918 0.4036 0.7715
vn 0.5987 0.4913 -0.6326
vn 0.5987 0.4913 0.6326
vn 0.8443 0.4513 -0.2890
vn 0.4173 0.2230 0.8810
vn 0.7786 0.4162 -0.4696
vn 0.5611 0.2999 0.7715
vn 0.6831 0.3651 -0.6326
vn 0.6831 0.3651 0.6326
vn 0.5611 0.2999 -0.7715
vn 0.7786 0.4162 0.4696
vn 0.4173 0.2230 -0.8810
vn 0.8443 0.4513 0.2890
vn 0.2571 0.1374 -0.9565
vn 0.8777 0.4691 0.0975
vn 0.0869 0.0464 0.9951
vn 0.0869 0.0464 -0.9951
vn 0.8777 0.4691 -0.0975
vn 0.2571 0.1374 0.9565
vn 0.4528 0.1374 -0.8810
vn 0.9161 0.2779 0.2890
vn 0.2790 0.0846 -0.9565
vn 0.9524 0.2889 0.0975
vn 0.0942 0.0286 0.9951
vn 0.0942 0.0286 -0.9951
vn 0.9524 0.2889 -0.0975
vn 0.2790 0.0846 0.9565
vn 0.9161 0.2779 -0.2890
vn 0.4528 0.1374 0.8810
vn 0.8448 0.2563 -0.4696
vn 0.6088 0.1847 0.7715
vn 0.7412 0.2248 -0.6326
vn 0.7412 0.2248 0.6326
vn 0.6088 0.1847 -0.7715
vn 0.8448 0.2563 0.4696
vn 0.4709 0.0464 0.8810
vn 0.8786 0.0865 -0.4696
vn 0.6332 0.0624 0.7715
vn 0.7708 0.0759 -0.6326
vn 0.7708 0.0759 0.6326
vn 0.6332 0.0624 -0.7715
vn 0.8786 0.0865 0.4696
vn 0.4709 0.0464 -0.8810
vn 0.9527 0.0938 0.2890
vn 0.2902 0.0286 -0.9565
vn 0.9904 0.0975 0.0975
vn 0.0980 0.0097 0.9951
vn 0.0980 0.0097 -0.9951
vn 0.9904 0.0975 -0.0975
vn 0.2902 0.0286 0.9565
vn 0.9527 0.0938 -0.2890
vn 0.9527 -0.0938 0.2890
vn 0.2902 -0.0286 -0.9565
vn 0.9904 -0.0975 0.0975
vn 0.0980 -0.0097 0.9951
vn 0.0980 -0.0097 -0.9951
vn 0.9904 -0.0975 -0.0975
vn 0.2902 -0.0286 0.9565
vn 0.9527 -0.0938 -0.2890
vn 0.4709 -0.0464 0.8810
vn 0.8786 -0.0865 -0.4696
vn 0.6332 -0.0624 0.7715
vn 0.7708 -0.0759 -0.6326
vn 0.7708 -0.0759 0.6326
vn 0.6332 -0.0624 -0.7715
vn 0.8786 -0.0865 0.4696
vn 0.4709 -0.0464 -0.8810
vn 0.8448 -0.2563 -0.4696
vn 0.6088 -0.1847 0.7715
vn 0.7412 -0.2248 -0.6326
vn 0.7412 -0.2248 0.6326
vn 0.6088 -0.1847 -0.7715
vn 0.8448 -0.2563 0.4696
vn 0.4528 -0.1374 -0.8810
vn 0.9161 -0.2779 0.2890
vn 0.2790 -0.0846 -0.9565
vn 0.9524 -0.2889 0.0975
vn 0.0942 -0.0286 0.9951
vn 0.0942 -0.0286 -0.9951
vn 0.9524 -0.2889 -0.0975
vn 0.2790 -0.0846 0.9565
vn 0.9161 -0.2779 -0.2890
vn 0.4528 -0.1374 0.8810
vn 0.2571 -0.1374 -0.9565
vn 0.8777 -0.4691 0.0975
vn 0.0869 -0.0464 0.9951
vn 0.0869 -0.0464 -0.9951
vn 0.8777 -0.4691 -0.0975
vn 0.2571 -0.1374 0.9565
vn 0.8443 -0.4513 -0.2890
vn 0.4173 -0.2230 0.8810
vn 0.7786 -0.4162 -0.4696
vn 0.5611 -0.2999 0.7715
vn 0.6831 -0.3651 -0.6326
vn 0.6831 -0.3651 0.6326
vn 0.5611 -0.2999 -0.7715
vn 0.7786 -0.4162 0.4696
vn 0.4173 -0.2230 -0.8810
vn 0.8443 -0.4513 0.2890
vn 0.4918 -0.4036 0.7715
vn 0.5987 -0.4913 -0.6326
vn 0.5987 -0.4913 0.6326
vn 0.4918 -0.4036 -0.7715
vn 0.6825 -0.5601 0.4696
vn 0.3658 -0.3002 -0.8810
vn 0.7400 -0.6073 0.2890
vn 0.2254 -0.1850 -0.9565
vn 0.7693 -0.6314 0.0975
vn 0.0761 -0.0625 0.9951
vn 0.0761 -0.0625 -0.9951
vn 0.7693 -0.6314 -0.0975
vn 0.2254 -0.1850 0.9565
vn 0.7400 -0.6073 -0.2890
vn 0.3658 -0.3002 0.8810
vn 0.6825 -0.5601 -0.4696
vn 0.6314 -0.7693 0.0975
vn 0.0625 -0.0761 0.9951
vn 0.0625 -0.0761 -0.9951
vn 0.6314 -0.7693 -0.0975
vn 0.1850 -0.2254 0.9565
vn 0.6073 -0.7400 -0.2890
vn 0.3002 -0.3658 0.8810
vn 0.5601 -0.6825 -0.4696
vn 0.4036 -0.4918 0.7715
vn 0.4913 -0.5987 -0.6326
vn 0.4913 -0.5987 0.6326
vn 0.4036 -0.4918 -0.7715
vn 0.5601 -0.6825 0.4696
vn 0.3002 -0.3658 -0.8810
vn 0.6073 -0.7400 0.2890
vn 0.1850 -0.2254 -0.9565
vn 0.3651 -0.6831 -0.6326
vn 0.3651 -0.6831 0.6326
vn 0.2999 -0.5611 -0.7715
vn 0.4162 -0.7786 0.4696
vn 0.2231 -0.4173 -0.8810
vn 0.4513 -0.8443 0.2890
vn 0.1374 -0.2571 -0.9565
vn 0.4691 -0.8777 0.0975
vn 0.0464 -0.0869 0.9951
vn 0.0464 -0.0869 -0.9951
vn 0.4691 -0.8777 -0.0975
vn 0.1374 -0.2571 0.9565
vn 0.4513 -0.8443 -0.2890
vn 0.2231 -0.4173 0.8810
vn 0.4162 -0.7786 -0.4696
vn 0.2999 -0.5611 0.7715
vn 0.0286 -0.0942 -0.9951
vn 0.2889 -0.9524 -0.0975
vn 0.0846 -0.2790 0.9565
vn 0.2779 -0.9161 -0.2890
vn 0.1374 -0.4528 0.8810
vn 0.2563 -0.8448 -0.4696
vn 0.1847 -0.6088 0.7715
vn 0.2248 -0.7412 -0.6326
vn 0.2248 -0.7412 0.6326
vn 0.1847 -0.6088 -0.7715
vn 0.2563 -0.8448 0.4696
vn 0.1374 -0.4528 -0.8810
vn 0.2779 -0.9161 0.2890
vn 0.0846 -0.2790 -0.9565
vn 0.2889 -0.9524 0.0975
vn 0.0286 -0.0942 0.9951
vn 0.0624 -0.6332 -0.7715
vn 0.0865 -0.8786 0.4696
vn 0.0464 -0.4709 -0.8810
vn 0.0938 -0.9527 0.2890
vn 0.0286 -0.2902 -0.9565
vn 0.0975 -0.9904 0.0975
vn 0.0097 -0.0980 0.9951
vn 0.0097 -0.0980 -0.9951
vn 0.0975 -0.9904 -0.0975
vn 0.0286 -0.2902 0.9565
vn 0.0938 -0.9527 -0.2890
vn 0.0464 -0.4709 0.8810
vn 0.0865 -0.8786 -0.4696
vn 0.0624 -0.6332 0.7715
vn 0.0759 -0.7708 -0.6326
vn 0.0759 -0.7708 0.6326
vn -0.0286 -0.2902 0.9565
vn -0.0938 -0.9527 -0.2890
vn -0.0464 -0.4709 0.8810
vn -0.0865 -0.8786 -0.4696
vn -0.0624 -0.6332 0.7715
vn -0.0759 -0.7708 -0.6326
vn -0.0759 -0.7708 0.6326
vn -0.0624 -0.6332 -0.7715
vn -0.0865 -0.8786 0.4696
vn -0.0464 -0.4709 -0.8810
vn -0.0938 -0.9527 0.2890
vn -0.0286 -0.2902 -0.9565
vn -0.0976 -0.9904 0.0975
vn -0.0097 -0.0980 0.9951
vn -0.0097 -0.0980 -0.9951
vn -0.0976 -0.9904 -0.0975
vn -0.2563 -0.8448 0.4696
vn -0.1374 -0.4528 -0.8810
vn -0.2779 -0.9161 0.2890
vn -0.0846 -0.2790 -0.9565
vn -0.2889 -0.9524 0.0975
vn -0.0286 -0.0942 0.9951
vn -0.0286 -0.0942 -0.9951
vn -0.2889 -0.9524 -0.0975
vn -0.0846 -0.2790 0.9565
vn -0.2779 -0.9161 -0.2890
vn -0.1374 -0.4528 0.8810
vn -0.2563 -0.8448 -0.4696
vn -0.1847 -0.6088 0.7715
vn -0.2248 -0.7412 -0.6326
vn -0.2248 -0.7412 0.6326
vn -0.1847 -0.6088 -0.7715
vn -0.4513 -0.8443 -0.2890
vn -0.2231 -0.4173 0.8810
vn -0.4162 -0.7786 -0.4696
vn -0.2999 -0.5611 0.7715
vn -0.3651 -0.6831 -0.6326
vn -0.3651 -0.6831 0.6326
vn -0.2999 -0.5611 -0.7715
vn -0.4162 -0.7786 0.4696
vn -0.2230 -0.4173 -0.8810
vn -0.4513 -0.8443 0.2890
vn -0.1374 -0.2571 -0.9565
vn -0.4691 -0.8777 0.0975
vn -0.0464 -0.0869 0.9951
vn -0.0464 -0.0869 -0.9951
vn -0.4691 -0.8777 -0.0975
vn -0.1374 -0.2571 0.9565
vn -0.3002 -0.3658 -0.8810
vn -0.6073 -0.7400 0.2890
vn -0.1850 -0.2254 -0.9565
vn -0.6314 -0.7693 0.0975
vn -0.0625 -0.0761 0.9951
vn -0.0625 -0.0761 -0.9951
vn -0.6314 -0.7693 -0.0975
vn -0.1850 -0.2254 0.9565
vn -0.6073 -0.7400 -0.2890
vn -0.3002 -0.3658 0.8810
vn -0.5601 -0.6825 -0.4696
vn -0.4036 -0.4918 0.7715
vn -0.4913 -0.5987 -0.6326
vn -0.4913 -0.5987 0.6326
vn -0.4036 -0.4918 -0.7715
vn -0.5601 -0.6825 0.4696
vn -0.3658 -0.3002 0.8810
vn -0.6825 -0.5601 -0.4696
vn -0.4918 -0.4036 0.7715
vn -0.5987 -0.4913 -0.6326
vn -0.5987 -0.4913 0.6326
vn -0.4918 -0.4036 -0.7715
vn -0.6825 -0.5601 0.4696
vn -0.3658 -0.3002 -0.8810
vn -0.7400 -0.6073 0.2890
vn -0.2254 -0.1850 -0.9565
vn -0.7693 -0.6314 0.0975
vn -0.0761 -0.0625 0.9951
vn -0.0761 -0.0625 -0.9951
vn -0.7693 -0.6314 -0.0975
vn -0.2254 -0.1850 0.9565
vn -0.7400 -0.6073 -0.2890
vn -0.8443 -0.4513 0.2890
vn -0.2571 -0.1374 -0.9565
vn -0.8777 -0.4691 0.0975
vn -0.0869 -0.0464 0.9951
vn -0.0869 -0.0464 -0.9951
vn -0.8777 -0.4691 -0.0975
vn -0.2571 -0.1374 0.9565
vn -0.8443 -0.4513 -0.2890
vn -0.4173 -0.2231 0.8810
vn -0.7786 -0.4162 -0.4696
vn -0.5611 -0.2999 0.7715
vn -0.6831 -0.3651 -0.6326
vn -0.6831 -0.3651 0.6326
vn -0.5611 -0.2999 -0.7715
vn -0.7786 -0.4162 0.4696
vn -0.4173 -0.2231 -0.8810
vn -0.8448 -0.2563 -0.4696
vn -0.6088 -0.1847 0.7715
vn -0.7412 -0.2248 -0.6326
vn -0.7412 -0.2248 0.6326
vn -0.6088 -0.1847 -0.7715
vn -0.8448 -0.2563 0.4696
vn -0.4528 -0.1374 -0.8810
vn -0.9161 -0.2779 0.2890
vn -0.2790 -0.0846 -0.9565
vn -0.9524 -0.2889 0.0975
vn -0.0942 -0.0286 0.9951
vn -0.0942 -0.0286 -0.9951
vn -0.9524 -0.2889 -0.0975
vn -0.2790 -0.0846 0.9565
vn -0.9161 -0.2779 -0.2890
vn -0.4528 -0.1374 0.8810
vn -0.2902 -0.0286 -0.9565
vn -0.9904 -0.0975 0.0975
vn -0.0980 -0.0097 0.9951
vn -0.0980 -0.0097 -0.9951
vn -0.9904 -0.0975 -0.0975
vn -0.2902 -0.0286 0.9565
vn -0.9527 -0.0938 -0.2890
vn -0.4709 -0.0464 0.8810
vn -0.8786 -0.0865 -0.4696
vn -0.6332 -0.0624 0.7715
vn -0.7708 -0.0759 -0.6326
vn -0.7708 -0.0759 0.6326
vn -0.6332 -0.0624 -0.7715
vn -0.8786 -0.0865 0.4696
vn -0.4709 -0.0464 -0.8810
vn -0.9527 -0.0938 0.2890
vn -0.7708 0.0759 -0.6326
vn -0.7708 0.0759 0.6326
vn -0.6332 0.0624 -0.7715
vn -0.8786 0.0865 0.4696
vn -0.4709 0.0464 -0.8810
vn -0.9527 0.0938 0.2890
vn -0.2902 0.0286 -0.9565
vn -0.9904 0.0975 0.0975
vn -0.0980 0.0097 0.9951
vn -0.0980 0.0097 -0.9951
vn -0.9904 0.0975 -0.0975
vn -0.2902 0.0286 0.9565
vn -0.9527 0.0938 -0.2890
vn -0.4709 0.0464 0.8810
vn -0.8786 0.0865 -0.4696
vn -0.6332 0.0624 0.7715
vn -0.0942 0.0286 0.9951
vn -0.0942 0.0286 -0.9951
vn -0.9524 0.2889 -0.0975
vn -0.2790 0.0846 0.9565
vn -0.9161 0.2779 -0.2890
vn -0.4528 0.1374 0.8810
vn -0.8448 0.2563 -0.4696
vn -0.6088 0.1847 0.7715
vn -0.7412 0.2248 -0.6326
vn -0.7412 0.2248 0.6326
vn -0.6088 0.1847 -0.7715
vn -0.8448 0.2563 0.4696
vn -0.4528 0.1374 -0.8810
vn -0.9161 0.2779 0.2890
vn -0.2790 0.0846 -0.9565
vn -0.9524 0.2889 0.0975
vn -0.6831 0.3651 0.6326
vn -0.5611 0.2999 -0.7715
vn -0.7786 0.4162 0.4696
vn -0.4173 0.2231 -0.8810
vn -0.8443 0.4513 0.2890
vn -0.2571 0.1374 -0.9565
vn -0.8777 0.4691 0.0975
vn -0.0869 0.0464 0.9951
vn -0.0869 0.0464 -0.9951
vn -0.8777 0.4691 -0.0975
vn -0.2571 0.1374 0.9565
vn -0.8443 0.4513 -0.2890
vn -0.4173 0.2231 0.8810
vn -0.7786 0.4162 -0.4696
vn -0.5611 0.2999 0.7715
vn -0.6831 0.3651 -0.6326
vn -0.7693 0.6314 -0.0975
vn -0.2254 0.1850 0.9565
vn -0.7400 0.6073 -0.2890
vn -0.3658 0.3002 0.8810
vn -0.6825 0.5601 -0.4696
vn -0.4918 0.4036 0.7715
vn -0.5987 0.4913 -0.6326
vn -0.5987 0.4913 0.6326
vn -0.4918 0.4036 -0.7715
vn -0.6825 0.5601 0.4696
vn -0.3658 0.3002 -0.8810
vn -0.7400 0.6073 0.2890
vn -0.2254 0.1850 -0.9565
vn -0.7693 0.6314 0.0975
vn -0.0761 0.0625 0.9951
vn -0.0761 0.0625 -0.9951
vn -0.4036 0.4918 -0.7715
vn -0.5601 0.6825 0.4696
vn -0.3002 0.3658 -0.8810
vn -0.6073 0.7400 0.2890
vn -0.1850 0.2254 -0.9565
vn -0.6314 0.7693 0.0975
vn -0.0625 0.0761 0.9951
vn -0.0625 0.0761 -0.9951
vn -0.6314 0.7693 -0.0975
vn -0.1850 0.2254 0.9565
vn -0.6073 0.7400 -0.2890
vn -0.3002 0.3658 0.8810
vn -0.5601 0.6825 -0.4696
vn -0.4036 0.4918 0.7715
vn -0.4913 0.5987 -0.6326
vn -0.4913 0.5987 0.6326
vn -0.1374 0.2571 0.9565
vn -0.4513 0.8443 -0.2890
vn -0.2230 0.4173 0.8810
vn -0.4162 0.7786 -0.4696
vn -0.2999 0.5611 0.7715
vn -0.3651 0.6831 -0.6326
vn -0.3651 0.6831 0.6326
vn -0.2999 0.5611 -0.7715
vn -0.4162 0.7786 0.4696
vn -0.2230 0.4173 -0.8810
vn -0.4513 0.8443 0.2890
vn -0.1374 0.2571 -0.9565
vn -0.4691 0.8777 0.0975
vn -0.0464 0.0869 0.9951
vn -0.0464 0.0869 -0.9951
vn -0.4691 0.8777 -0.0975
vn -0.2563 0.8448 0.4696
vn -0.1374 0.4528 -0.8810
vn -0.2779 0.9161 0.2890
vn -0.0846 0.2790 -0.9565
vn -0.2889 0.9524 0.0975
vn -0.0286 0.0942 0.9951
vn -0.0286 0.0942 -0.9951
vn -0.2889 0.9524 -0.0975
vn -0.0846 0.2790 0.9565
vn -0.2779 0.9161 -0.2890
vn -0.1374 0.4528 0.8810
vn -0.2563 0.8448 -0.4696
vn -0.1847 0.6088 0.7715
vn -0.2248 0.7412 -0.6326
vn -0.2248 0.7412 0.6326
vn -0.1847 0.6088 -0.7715
vn -0.0938 0.9527 -0.2890
vn -0.0464 0.4709 0.8810
vn -0.0865 0.8786 -0.4696
vn -0.0624 0.6332 0.7715
vn -0.0759 0.7708 -0.6326
vn -0.0759 0.7708 0.6326
vn -0.0624 0.6332 -0.7715
vn -0.0865 0.8786 0.4696
vn -0.0464 0.4709 -0.8810
vn -0.0938 0.9527 0.2890
vn -0.0286 0.2902 -0.9565
vn -0.0976 0.9904 0.0975
vn -0.0097 0.0980 0.9951
vn -0.0097 0.0980 -0.9951
vn -0.0976 0.9904 -0.0975
vn -0.0286 0.2902 0.9565
s 0
f 478//1 5//1 15//1 16//1
f 1//2 475//2 8//2 9//2
f 6//3 478//3 16//3 17//3
f 476//4 1//4 9//4 10//4
f 479//5 6//5 17//5 18//5
f 2//6 476//6 10//6 11//6
f 480//7 479//7 18//7 19//7
f 477//8 2//8 11//8 12//8
f 481//9 480//9 19//9 20//9
f 3//10 477//10 12//10 13//10
f 482//11 481//11 20//11 21//11
f 4//12 3//12 13//12 14//12
f 474//13 82//13 7//13
f 308//14 482//14 21//14
f 5//15 4//15 14//15 15//15
f 475//16 474//16 7//16 8//16
f 7//17 82//17 22//17
f 308//18 21//18 36//18
f 15//19 14//19 29//19 30//19
f 8//20 7//20 22//20 23//20
f 16//21 15//21 30//21 31//21
f 9//22 8//22 23//22 24//22
f 17//23 16//23 31//23 32//23
f 10//24 9//24 24//24 25//24
f 18//25 17//25 32//25 33//25
f 11//26 10//26 25//26 26//26
f 19//27 18//27 33//27 34//27
f 12//28 11//28 26//28 27//28
f 20//29 19//29 34//29 35//29
f 13//30 12//30 27//30 28//30
f 21//31 20//31 35//31 36//31
f 14//32 13//32 28//32 29//32
f 26//33 25//33 40//33 41//33
f 34//34 33//34 48//34 49//34
f 27//35 26//35 41//35 42//35
f 35//36 34//36 49//36 50//36
f 28//37 27//37 42//37 43//37
f 36//38 35//38 50//38 51//38
f 29//39 28//39 43//39 44//39
f 22//40 82//40 37//40
f 308//41 36//41 51//41
f 30//42 29//42 44//42 45//42
f 23//43 22//43 37//43 38//43
f 31//44 30//44 45//44 46//44
f 24//45 23//45 38//45 39//45
f 32//46 31//46 46//46 47//46
f 25//47 24//47 39//47 40//47
f 33//48 32//48 47//48 48//48
f 45//49 44//49 59//49 60//49
f 38//50 37//50 52//50 53//50
f 46//51 45//51 60//51 61//51
f 39//52 38//52 53//52 54//52
f 47//53 46//53 61//53 62//53
f 40//54 39//54 54//54 55//54
f 48//55 47//55 62//55 63//55
f 41//56 40//56 55//56 56//56
f 49//57 48//57 63//57 64//57
f 42//58 41//58 56//58 57//58
f 50//59 49//59 64//59 65//59
f 43//60 42//60 57//60 58//60
f 51//61 50//61 65//61 66//61
f 44//62 43//62 58//62 59//62
f 37//63 82//63 52//63
f 308//64 51//64 66//64
f 64//65 63//65 78//65 79//65
f 57//66 56//66 71//66 72//66
f 65//67 64//67 79//67 80//67
f 58//68 57//68 72//68 73//68
f 66//69 65//69 80//69 81//69
f 59//70 58//70 73//70 74//70
f 52//71 82//71 67//71
f 308//72 66//72 81//72
f 60//73 59//73 74//73 75//73
f 53//74 52//74 67//74 68//74
f 61//75 60//75 75//75 76//75
f 54//76 53//76 68//76 69//76
f 62//77 61//77 76//77 77//77
f 55//78 54//78 69//78 70//78
f 63//79 62//79 77//79 78//79
f 56//80 55//80 70//80 71//80
f 76//81 75//81 91//81 92//81
f 69//82 68//82 84//82 85//82
f 77//83 76//83 92//83 93//83
f 70//84 69//84 85//84 86//84
f 78//85 77//85 93//85 94//85
f 71//86 70//86 86//86 87//86
f 79//87 78//87 94//87 95//87
f 72//88 71//88 87//88 88//88
f 80//89 79//89 95//89 96//89
f 73//90 72//90 88//90 89//90
f 81//91 80//91 96//91 97//91
f 74//92 73//92 89//92 90//92
f 67//93 82//93 83//93
f 308//94 81//94 97//94
f 75//95 74//95 90//95 91//95
f 68//96 67//96 83//96 84//96
f 96//97 95//97 110//97 111//97
f 89//98 88//98 103//98 104//98
f 97//99 96//99 111//99 112//99
f 90//100 89//100 104//100 105//100
f 83//101 82//101 98//101
f 308//102 97//102 112//102
f 91//103 90//103 105//103 106//103
f 84//104 83//104 98//104 99//104
f 92//105 91//105 106//105 107//105
f 85//106 84//106 99//106 100//106
f 93//107 92//107 107//107 108//107
f 86//108 85//108 100//108 101//108
f 94//109 93//109 108//109 109//109
f 87//110 86//110 101//110 102//110
f 95//111 94//111 109//111 110//111
f 88//112 87//112 102//112 103//112
f 100//113 99//113 114//113 115//113
f 108//114 107//114 122//114 123//114
f 101//115 100//115 115//115 116//115
f 109//116 108//116 123//116 124//116
f 102//117 101//117 116//117 117//117
f 110//118 109//118 124//118 125//118
f 103//119 102//119 117//119 118//119
f 111//120 110//120 125//120 126//120
f 104//121 103//121 118//121 119//121
f 112//122 111//122 126//122 127//122
f 105//123 104//123 119//123 120//123
f 98//124 82//124 113//124
f 308//125 112//125 127//125
f 106//126 105//126 120//126 121//126
f 99//127 98//127 113//127 114//127
f 107//128 106//128 121//128 122//128
f 119//129 118//129 133//129 134//129
f 127//130 126//130 141//130 142//130
f 120//131 119//131 134//131 135//131
f 113//132 82//132 128//132
f 308//133 127//133 142//133
f 121//134 120//134 135//134 136//134
f 114//135 113//135 128//135 129//135
f 122//136 121//136 136//136 137//136
f 115//137 114//137 129//137 130//137
f 123//138 122//138 137//138 138//138
f 116//139 115//139 130//139 131//139
f 124//140 123//140 138//140 139//140
f 117//141 116//141 131//141 132//141
f 125//142 124//142 139//142 140//142
f 118//143 117//143 132//143 133//143
f 126//144 125//144 140//144 141//144
f 138//145 137//145 152//145 153//145
f 131//146 130//146 145//146 146//146
f 139//147 138//147 153//147 154//147
f 132//148 131//148 146//148 147//148
f 140//149 139//149 154//149 155//149
f 133//150 132//150 147//150 148//150
f 141//151 140//151 155//151 156//151
f 134//152 133//152 148//152 149//152
f 142//153 141//153 156//153 157//153
f 135//154 134//154 149//154 150//154
f 128//155 82//155 143//155
f 308//156 142//156 157//156
f 136//157 135//157 150//157 151//157
f 129//158 128//158 143//158 144//158
f 137//159 136//159 151//159 152//159
f 130//160 129//160 144//160 145//160
f 157//161 156//161 171//161 172//161
f 150//162 149//162 164//162 165//162
f 143//163 82//163 158//163
f 308//164 157//164 172//164
f 151//165 150//165 165//165 166//165
f 144//166 143//166 158//166 159//166
f 152//167 151//167 166//167 167//167
f 145//168 144//168 159//168 160//168
f 153//169 152//169 167//169 168//169
f 146//170 145//170 160//170 161//170
f 154//171 153//171 168//171 169//171
f 147//172 146//172 161//172 162//172
f 155//173 154//173 169//173 170//173
f 148//174 147//174 162//174 163//174
f 156//175 155//175 170//175 171//175
f 149//176 148//176 163//176 164//176
f 161//177 160//177 175//177 176//177
f 169//178 168//178 183//178 184//178
f 162//179 161//179 176//179 177//179
f 170//180 169//180 184//180 185//180
f 163//181 162//181 177//181 178//181
f 171//182 170//182 185//182 186//182
f 164//183 163//183 178//183 179//183
f 172//184 171//184 186//184 187//184
f 165//185 164//185 179//185 180//185
f 158//186 82//186 173//186
f 308//187 172//187 187//187
f 166//188 165//188 180//188 181//188
f 159//189 158//189 173//189 174//189
f 167//190 166//190 181//190 182//190
f 160//191 159//191 174//191 175//191
f 168//192 167//192 182//192 183//192
f 180//193 179//193 194//193 195//193
f 173//194 82//194 188//194
f 308//195 187//195 202//195
f 181//196 180//196 195//196 196//196
f 174//197 173//197 188//197 189//197
f 182//198 181//198 196//198 197//198
f 175//199 174//199 189//199 190//199
f 183//200 182//200 197//200 198//200
f 176//201 175//201 190//201 191//201
f 184//202 183//202 198//202 199//202
f 177//203 176//203 191//203 192//203
f 185//204 184//204 199//204 200//204
f 178//205 177//205 192//205 193//205
f 186//206 185//206 200//206 201//206
f 179//207 178//207 193//207 194//207
f 187//208 186//208 201//208 202//208
f 199//209 198//209 213//209 214//209
f 192//210 191//210 206//210 207//210
f 200//211 199//211 214//211 215//211
f 193//212 192//212 207//212 208//212
f 201//213 200//213 215//213 216//213
f 194//214 193//214 208//214 209//214
f 202//215 201//215 216//215 217//215
f 195//216 194//216 209//216 210//216
f 188//217 82//217 203//217
f 308//218 202//218 217//218
f 196//219 195//219 210//219 211//219
f 189//220 188//220 203//220 204//220
f 197//221 196//221 211//221 212//221
f 190//222 189//222 204//222 205//222
f 198//223 197//223 212//223 213//223
f 191//224 190//224 205//224 206//224
f 308//225 217//225 232//225
f 211//226 210//226 225//226 226//226
f 204//227 203//227 218//227 219//227
f 212//228 211//228 226//228 227//228
f 205//229 204//229 219//229 220//229
f 213//230 212//230 227//230 228//230
f 206//231 205//231 220//231 221//231
f 214//232 213//232 228//232 229//232
f 207//233 206//233 221//233 222//233
f 215//234 214//234 229//234 230//234
f 208//235 207//235 222//235 223//235
f 216//236 215//236 230//236 231//236
f 209//237 208//237 223//237 224//237
f 217//238 216//238 231//238 232//238
f 210//239 209//239 224//239 225//239
f 203//240 82//240 218//240
f 230//241 229//241 244//241 245//241
f 223//242 222//242 237//242 238//242
f 231//243 230//243 245//243 246//243
f 224//244 223//244 238//244 239//244
f 232//245 231//245 246//245 247//245
f 225//246 224//246 239//246 240//246
f 218//247 82//247 233//247
f 308//248 232//248 247//248
f 226//249 225//249 240//249 241//249
f 219//250 218//250 233//250 234//250
f 227//251 226//251 241//251 242//251
f 220//252 219//252 234//252 235//252
f 228//253 227//253 242//253 243//253
f 221//254 220//254 235//254 236//254
f 229//255 228//255 243//255 244//255
f 222//256 221//256 236//256 237//256
f 234//257 233//257 248//257 249//257
f 242//258 241//258 256//258 257//258
f 235//259 234//259 249//259 250//259
f 243//260 242//260 257//260 258//260
f 236//261 235//261 250//261 251//261
f 244//262 243//262 258//262 259//262
f 237//263 236//263 251//263 252//263
f 245//264 244//264 259//264 260//264
f 238//265 237//265 252//265 253//265
f 246//266 245//266 260//266 261//266
f 239//267 238//267 253//267 254//267
f 247//268 246//268 261//268 262//268
f 240//269 239//269 254//269 255//269
f 233//270 82//270 248//270
f 308//271 247//271 262//271
f 241//272 240//272 255//272 256//272
f 253//273 252//273 267//273 268//273
f 261//274 260//274 275//274 276//274
f 254//275 253//275 268//275 269//275
f 262//276 261//276 276//276 277//276
f 255//277 254//277 269//277 270//277
f 248//278 82//278 263//278
f 308//279 262//279 277//279
f 256//280 255//280 270//280 271//280
f 249//281 248//281 263//281 264//281
f 257//282 256//282 271//282 272//282
f 250//283 249//283 264//283 265//283
f 258//284 257//284 272//284 273//284
f 251//285 250//285 265//285 266//285
f 259//286 258//286 273//286 274//286
f 252//287 251//287 266//287 267//287
f 260//288 259//288 274//288 275//288
f 272//289 271//289 286//289 287//289
f 265//290 264//290 279//290 280//290
f 273//291 272//291 287//291 288//291
f 266//292 265//292 280//292 281//292
f 274//293 273//293 288//293 289//293
f 267//294 266//294 281//294 282//294
f 275//295 274//295 289//295 290//295
f 268//296 267//296 282//296 283//296
f 276//297 275//297 290//297 291//297
f 269//298 268//298 283//298 284//298
f 277//299 276//299 291//299 292//299
f 270//300 269//300 284//300 285//300
f 263//301 82//301 278//301
f 308//302 277//302 292//302
f 271//303 270//303 285//303 286//303
f 264//304 263//304 278//304 279//304
f 291//305 290//305 305//305 306//305
f 284//306 283//306 298//306 299//306
f 292//307 291//307 306//307 307//307
f 285//308 284//308 299//308 300//308
f 278//309 82//309 293//309
f 308//310 292//310 307//310
f 286//311 285//311 300//311 301//311
f 279//312 278//312 293//312 294//312
f 287//313 286//313 301//313 302//313
f 280//314 279//314 294//314 295//314
f 288//315 287//315 302//315 303//315
f 281//316 280//316 295//316 296//316
f 289//317 288//317 303//317 304//317
f 282//318 281//318 296//318 297//318
f 290//319 289//319 304//319 305//319
f 283//320 282//320 297//320 298//320
f 295//321 294//321 310//321 311//321
f 303//322 302//322 318//322 319//322
f 296//323 295//323 311//323 312//323
f 304//324 303//324 319//324 320//324
f 297//325 296//325 312//325 313//325
f 305//326 304//326 320//326 321//326
f 298//327 297//327 313//327 314//327
f 306//328 305//328 321//328 322//328
f 299//329 298//329 314//329 315//329
f 307//330 306//330 322//330 323//330
f 300//331 299//331 315//331 316//331
f 293//332 82//332 309//332
f 308//333 307//333 323//333
f 301//334 300//334 316//334 317//334
f 294//335 293//335 309//335 310//335
f 302//336 301//336 317//336 318//336
f 315//337 314//337 329//337 330//337
f 323//338 322//338 337//338 338//338
f 316//339 315//339 330//339 331//339
f 309//340 82//340 324//340
f 308//341 323//341 338//341
f 317//342 316//342 331//342 332//342
f 310//343 309//343 324//343 325//343
f 318//344 317//344 332//344 333//344
f 311//345 310//345 325//345 326//345
f 319//346 318//346 333//346 334//346
f 312//347 311//347 326//347 327//347
f 320//348 319//348 334//348 335//348
f 313//349 312//349 327//349 328//349
f 321//350 320//350 335//350 336//350
f 314//351 313//351 328//351 329//351
f 322//352 321//352 336//352 337//352
f 334//353 333//353 348//353 349//353
f 327//354 326//354 341//354 342//354
f 335//355 334//355 349//355 350//355
f 328//356 327//356 342//356 343//356
f 336//357 335//357 350//357 351//357
f 329//358 328//358 343//358 344//358
f 337//359 336//359 351//359 352//359
f 330//360 329//360 344//360 345//360
f 338//361 337//361 352//361 353//361
f 331//362 330//362 345//362 346//362
f 324//363 82//363 339//363
f 308//364 338//364 353//364
f 332//365 331//365 346//365 347//365
f 325//366 324//366 339//366 340//366
f 333//367 332//367 347//367 348//367
f 326//368 325//368 340//368 341//368
f 353//369 352//369 367//369 368//369
f 346//370 345//370 360//370 361//370
f 339//371 82//371 354//371
f 308//372 353//372 368//372
f 347//373 346//373 361//373 362//373
f 340//374 339//374 354//374 355//374
f 348//375 347//375 362//375 363//375
f 341//376 340//376 355//376 356//376
f 349//377 348//377 363//377 364//377
f 342//378 341//378 356//378 357//378
f 350//379 349//379 364//379 365//379
f 343//380 342//380 357//380 358//380
f 351//381 350//381 365//381 366//381
f 344//382 343//382 358//382 359//382
f 352//383 351//383 366//383 367//383
f 345//384 344//384 359//384 360//384
f 365//385 364//385 379//385 380//385
f 358//386 357//386 372//386 373//386
f 366//387 365//387 380//387 381//387
f 359//388 358//388 373//388 374//388
f 367//389 366//389 381//389 382//389
f 360//390 359//390 374//390 375//390
f 368//391 367//391 382//391 383//391
f 361//392 360//392 375//392 376//392
f 354//393 82//393 369//393
f 308//394 368//394 383//394
f 362//395 361//395 376//395 377//395
f 355//396 354//396 369//396 370//396
f 363//397 362//397 377//397 378//397
f 356//398 355//398 370//398 371//398
f 364//399 363//399 378//399 379//399
f 357//400 356//400 371//400 372//400
f 369//401 82//401 384//401
f 308//402 383//402 398//402
f 377//403 376//403 391//403 392//403
f 370//404 369//404 384//404 385//404
f 378//405 377//405 392//405 393//405
f 371//406 370//406 385//406 386//406
f 379//407 378//407 393//407 394//407
f 372//408 371//408 386//408 387//408
f 380//409 379//409 394//409 395//409
f 373//410 372//410 387//410 388//410
f 381//411 380//411 395//411 396//411
f 374//412 373//412 388//412 389//412
f 382//413 381//413 396//413 397//413
f 375//414 374//414 389//414 390//414
f 383//415 382//415 397//415 398//415
f 376//416 375//416 390//416 391//416
f 388//417 387//417 402//417 403//417
f 396//418 395//418 410//418 411//418
f 389//419 388//419 403//419 404//419
f 397//420 396//420 411//420 412//420
f 390//421 389//421 404//421 405//421
f 398//422 397//422 412//422 413//422
f 391//423 390//423 405//423 406//423
f 384//424 82//424 399//424
f 308//425 398//425 413//425
f 392//426 391//426 406//426 407//426
f 385//427 384//427 399//427 400//427
f 393//428 392//428 407//428 408//428
f 386//429 385//429 400//429 401//429
f 394//430 393//430 408//430 409//430
f 387//431 386//431 401//431 402//431
f 395//432 394//432 409//432 410//432
f 407//433 406//433 421//433 422//433
f 400//434 399//434 414//434 415//434
f 408//435 407//435 422//435 423//435
f 401//436 400//436 415//436 416//436
f 409//437 408//437 423//437 424//437
f 402//438 401//438 416//438 417//438
f 410//439 409//439 424//439 425//439
f 403//440 402//440 417//440 418//440
f 411//441 410//441 425//441 426//441
f 404//442 403//442 418//442 419//442
f 412//443 411//443 426//443 427//443
f 405//444 404//444 419//444 420//444
f 413//445 412//445 427//445 428//445
f 406//446 405//446 420//446 421//446
f 399//447 82//447 414//447
f 308//448 413//448 428//448
f 426//449 425//449 440//449 441//449
f 419//450 418//450 433//450 434//450
f 427//451 426//451 441//451 442//451
f 420//452 419//452 434//452 435//452
f 428//453 427//453 442//453 443//453
f 421//454 420//454 435//454 436//454
f 414//455 82//455 429//455
f 308//456 428//456 443//456
f 422//457 421//457 436//457 437//457
f 415//458 414//458 429//458 430//458
f 423//459 422//459 437//459 438//459
f 416//460 415//460 430//460 431//460
f 424//461 423//461 438//461 439//461
f 417//462 416//462 431//462 432//462
f 425//463 424//463 439//463 440//463
f 418//464 417//464 432//464 433//464
f 430//465 429//465 444//465 445//465
f 438//466 437//466 452//466 453//466
f 431//467 430//467 445//467 446//467
f 439//468 438//468 453//468 454//468
f 432//469 431//469 446//469 447//469
f 440//470 439//470 454//470 455//470
f 433//471 432//471 447//471 448//471
f 441//472 440//472 455//472 456//472
f 434//473 433//473 448//473 449//473
f 442//474 441//474 456//474 457//474
f 435//475 434//475 449//475 450//475
f 443//476 442//476 457//476 458//476
f 436//477 435//477 450//477 451//477
f 429//478 82//478 444//478
f 308//479 443//479 458//479
f 437//480 436//480 451//480 452//480
f 449//481 448//481 463//481 464//481
f 457//482 456//482 471//482 472//482
f 450//483 449//483 464//483 465//483
f 458//484 457//484 472//484 473//484
f 451//485 450//485 465//485 466//485
f 444//486 82//486 459//486
f 308//487 458//487 473//487
f 452//488 451//488 466//488 467//488
f 445//489 444//489 459//489 460//489
f 453//490 452//490 467//490 468//490
f 446//491 445//491 460//491 461//491
f 454//492 453//492 468//492 469//492
f 447//493 446//493 461//493 462//493
f 455//494 454//494 469//494 470//494
f 448//495 447//495 462//495 463//495
f 456//496 455//496 470//496 471//496
f 468//497 467//497 5//497 478//497
f 461//498 460//498 475//498 1//498
f 469//499 468//499 478//499 6//499
f 462//500 461//500 1//500 476//500
f 470//501 469//501 6//501 479//501
f 463//502 462//502 476//502 2//502
f 471//503 470//503 479//503 480//503
f 464//504 463//504 2//504 477//504
f 472//505 471//505 480//505 481//505
f 465//506 464//506 477//506 3//506
f 473//507 472//507 481//507 482//507
f 466//508 465//508 3//508 4//508
f 459//509 82//509 474//509
f 308//510 473//510 482//510
f 467//511 466//511 4//511 5//511
f 460//512 459//512 474//512 475//512
