# Blender 4.5.0 Beta
# www.blender.org
o domain.001
v -7.053340 -4.598414 -1.485410
v -7.053340 -4.598414 4.923869
v -7.053340 5.156248 -1.485410
v -7.053340 5.156248 4.923869
v 5.224694 -4.598414 -1.485410
v 5.224694 -4.598414 4.923869
v 5.224694 5.156248 -1.485410
v 5.224694 5.156248 4.923869
vn -0.5774 -0.5774 -0.5774
vn -0.5774 -0.5774 0.5774
vn -0.5774 0.5774 -0.5774
vn -0.5774 0.5774 0.5774
vn 0.5774 -0.5774 -0.5774
vn 0.5774 -0.5774 0.5774
vn 0.5774 0.5774 -0.5774
vn 0.5774 0.5774 0.5774
s 1
f 1//1 2//2 4//4 3//3
f 3//3 4//4 8//8 7//7
f 7//7 8//8 6//6 5//5
f 5//5 6//6 2//2 1//1
f 3//3 7//7 5//5 1//1
f 8//8 4//4 2//2 6//6
