# Blender 4.5.0 Beta
# www.blender.org
o icosphere.001
v -5.281105 0.275724 3.068764
v -5.138405 0.172048 3.177776
v -5.335610 0.107971 3.177776
v -5.457491 0.275724 3.177777
v -5.335610 0.443478 3.177776
v -5.138405 0.379401 3.177776
v -5.226599 0.107971 3.354165
v -5.423804 0.172048 3.354165
v -5.423804 0.379401 3.354165
v -5.226599 0.443478 3.354165
v -5.104719 0.275724 3.354164
v -5.281105 0.275724 3.463176
v -5.313142 0.177122 3.098216
v -5.197228 0.214785 3.098216
v -5.229265 0.116182 3.162292
v -5.113352 0.275724 3.162292
v -5.197228 0.336663 3.098216
v -5.384782 0.275724 3.098217
v -5.416820 0.177122 3.162292
v -5.313142 0.374326 3.098216
v -5.416820 0.374327 3.162292
v -5.229265 0.435266 3.162292
v -5.093550 0.214785 3.265970
v -5.093550 0.336663 3.265970
v -5.281105 0.078518 3.265970
v -5.165190 0.116181 3.265970
v -5.468659 0.214785 3.265970
v -5.397020 0.116181 3.265970
v -5.397020 0.435267 3.265970
v -5.468659 0.336663 3.265970
v -5.165190 0.435267 3.265970
v -5.281105 0.472930 3.265970
v -5.145390 0.177122 3.369649
v -5.332944 0.116182 3.369649
v -5.448858 0.275724 3.369648
v -5.332944 0.435266 3.369649
v -5.145390 0.374327 3.369649
v -5.249067 0.177122 3.433725
v -5.177427 0.275724 3.433724
v -5.364981 0.214785 3.433725
v -5.364981 0.336663 3.433725
v -5.249067 0.374326 3.433725
vn 0.1024 -0.3151 -0.9435
vn 0.7002 -0.2680 -0.6617
vn -0.2680 -0.1947 -0.9435
vn -0.2680 0.1947 -0.9435
vn 0.1024 0.3151 -0.9435
vn 0.9050 -0.2680 -0.3304
vn 0.0247 -0.9435 -0.3304
vn -0.8897 -0.3151 -0.3304
vn -0.5746 0.7488 -0.3304
vn 0.5346 0.7779 -0.3304
vn 0.8026 -0.5831 -0.1256
vn -0.3066 -0.9435 -0.1256
vn -0.9921 -0.0000 -0.1256
vn -0.3066 0.9435 -0.1256
vn 0.8026 0.5831 -0.1256
vn 0.4089 -0.6284 0.6617
vn -0.4713 -0.5831 0.6617
vn -0.7002 0.2680 0.6617
vn 0.0385 0.7488 0.6617
vn 0.7241 0.1947 0.6617
vn 0.2680 0.1947 0.9435
vn 0.4911 0.3568 0.7947
vn 0.4089 0.6284 0.6617
vn -0.1024 0.3151 0.9435
vn -0.1876 0.5773 0.7947
vn -0.4713 0.5831 0.6617
vn -0.3313 -0.0000 0.9435
vn -0.6071 -0.0000 0.7947
vn -0.7002 -0.2680 0.6617
vn -0.1024 -0.3151 0.9435
vn -0.1876 -0.5773 0.7947
vn 0.0385 -0.7488 0.6617
vn 0.2680 -0.1947 0.9435
vn 0.4911 -0.3568 0.7947
vn 0.7240 -0.1947 0.6617
vn 0.8897 0.3151 0.3304
vn 0.7947 0.5774 0.1876
vn 0.5746 0.7488 0.3304
vn -0.0247 0.9435 0.3304
vn -0.3035 0.9342 0.1876
vn -0.5346 0.7779 0.3304
vn -0.9050 0.2680 0.3304
vn -0.9822 -0.0000 0.1876
vn -0.9050 -0.2680 0.3304
vn -0.5346 -0.7779 0.3304
vn -0.3035 -0.9342 0.1876
vn -0.0247 -0.9435 0.3304
vn 0.5746 -0.7488 0.3304
vn 0.7947 -0.5774 0.1876
vn 0.8897 -0.3151 0.3304
vn 0.3066 0.9435 0.1256
vn 0.3035 0.9342 -0.1876
vn 0.0247 0.9435 -0.3304
vn -0.8026 0.5831 0.1256
vn -0.7947 0.5774 -0.1876
vn -0.8897 0.3151 -0.3304
vn -0.8026 -0.5831 0.1256
vn -0.7947 -0.5774 -0.1876
vn -0.5746 -0.7488 -0.3304
vn 0.3066 -0.9435 0.1256
vn 0.3035 -0.9342 -0.1876
vn 0.5346 -0.7779 -0.3304
vn 0.9921 -0.0000 0.1256
vn 0.9822 -0.0000 -0.1876
vn 0.9050 0.2680 -0.3304
vn 0.4713 0.5831 -0.6617
vn 0.1876 0.5773 -0.7947
vn -0.0385 0.7488 -0.6617
vn -0.4089 0.6284 -0.6617
vn -0.4911 0.3568 -0.7947
vn -0.7240 0.1947 -0.6617
vn -0.7240 -0.1947 -0.6617
vn -0.4911 -0.3568 -0.7947
vn -0.4089 -0.6284 -0.6617
vn 0.7002 0.2680 -0.6617
vn 0.6071 -0.0000 -0.7947
vn 0.3313 -0.0000 -0.9435
vn -0.0385 -0.7488 -0.6617
vn 0.1876 -0.5773 -0.7947
vn 0.4713 -0.5831 -0.6617
s 0
f 1//1 14//1 13//1
f 2//2 14//2 16//2
f 1//3 13//3 18//3
f 1//4 18//4 20//4
f 1//5 20//5 17//5
f 2//6 16//6 23//6
f 3//7 15//7 25//7
f 4//8 19//8 27//8
f 5//9 21//9 29//9
f 6//10 22//10 31//10
f 2//11 23//11 26//11
f 3//12 25//12 28//12
f 4//13 27//13 30//13
f 5//14 29//14 32//14
f 6//15 31//15 24//15
f 7//16 33//16 38//16
f 8//17 34//17 40//17
f 9//18 35//18 41//18
f 10//19 36//19 42//19
f 11//20 37//20 39//20
f 39//21 42//21 12//21
f 39//22 37//22 42//22
f 37//23 10//23 42//23
f 42//24 41//24 12//24
f 42//25 36//25 41//25
f 36//26 9//26 41//26
f 41//27 40//27 12//27
f 41//28 35//28 40//28
f 35//29 8//29 40//29
f 40//30 38//30 12//30
f 40//31 34//31 38//31
f 34//32 7//32 38//32
f 38//33 39//33 12//33
f 38//34 33//34 39//34
f 33//35 11//35 39//35
f 24//36 37//36 11//36
f 24//37 31//37 37//37
f 31//38 10//38 37//38
f 32//39 36//39 10//39
f 32//40 29//40 36//40
f 29//41 9//41 36//41
f 30//42 35//42 9//42
f 30//43 27//43 35//43
f 27//44 8//44 35//44
f 28//45 34//45 8//45
f 28//46 25//46 34//46
f 25//47 7//47 34//47
f 26//48 33//48 7//48
f 26//49 23//49 33//49
f 23//50 11//50 33//50
f 31//51 32//51 10//51
f 31//52 22//52 32//52
f 22//53 5//53 32//53
f 29//54 30//54 9//54
f 29//55 21//55 30//55
f 21//56 4//56 30//56
f 27//57 28//57 8//57
f 27//58 19//58 28//58
f 19//59 3//59 28//59
f 25//60 26//60 7//60
f 25//61 15//61 26//61
f 15//62 2//62 26//62
f 23//63 24//63 11//63
f 23//64 16//64 24//64
f 16//65 6//65 24//65
f 17//66 22//66 6//66
f 17//67 20//67 22//67
f 20//68 5//68 22//68
f 20//69 21//69 5//69
f 20//70 18//70 21//70
f 18//71 4//71 21//71
f 18//72 19//72 4//72
f 18//73 13//73 19//73
f 13//74 3//74 19//74
f 16//75 17//75 6//75
f 16//76 14//76 17//76
f 14//77 1//77 17//77
f 13//78 15//78 3//78
f 13//79 14//79 15//79
f 14//80 2//80 15//80
