# Blender 4.5.0 Beta
# www.blender.org
o sink.001
v -1.750303 -0.901545 -1.114043
v -1.479409 -0.630651 -0.080238
v -1.750303 1.499713 -1.114043
v -1.479409 1.228819 -0.080238
v 0.650955 -0.901545 -1.114043
v 0.380062 -0.630651 -0.080238
v 0.650955 1.499713 -1.114043
v 0.380062 1.228819 -0.080238
v -1.750303 -0.901545 -0.080238
v -1.750303 1.499713 -0.080238
v 0.650955 1.499713 -0.080238
v 0.650955 -0.901545 -0.080238
v -1.479409 -0.630651 -0.543247
v -1.479409 1.228819 -0.543247
v 0.380062 1.228819 -0.543247
v 0.380062 -0.630651 -0.543247
v -1.479409 -0.630651 -0.543247
v -1.479409 1.228819 -0.543247
v 0.380062 1.228819 -0.543247
v 0.380062 -0.630651 -0.543247
vn -0.5774 -0.5774 -0.5774
vn 0.3015 0.3015 0.9045
vn -0.5774 0.5774 -0.5774
vn 0.3015 -0.3015 0.9045
vn 0.5774 -0.5774 -0.5774
vn -0.3015 0.3015 0.9045
vn 0.5774 0.5774 -0.5774
vn -0.3015 -0.3015 0.9045
vn -0.5773 -0.5773 0.5774
vn -0.5773 0.5773 0.5774
vn 0.5773 0.5773 0.5774
vn 0.5773 -0.5773 0.5774
vn 0.5774 0.5774 0.5774
vn 0.5774 -0.5774 0.5774
vn -0.5774 -0.5774 0.5774
vn -0.5774 0.5774 0.5774
vn -0.0000 -0.0000 1.0000
s 1
f 1//1 9//9 10//10 3//3
f 3//3 10//10 11//11 7//7
f 7//7 11//11 12//12 5//5
f 5//5 12//12 9//9 1//1
f 3//3 7//7 5//5 1//1
f 6//6 8//8 15//15 16//16
f 2//2 4//4 10//10 9//9
f 4//4 8//8 11//11 10//10
f 8//8 6//6 12//12 11//11
f 6//6 2//2 9//9 12//12
f 15//15 14//14 13//13 16//16
f 4//4 2//2 13//13 14//14
f 2//2 6//6 16//16 13//13
f 8//8 4//4 14//14 15//15
f 19//17 18//17 17//17 20//17
