# Blender 4.5.0 Beta
# www.blender.org
o slope.001
v -6.580228 -0.194497 3.311605
v -6.551385 -0.194497 3.604150
v -6.580228 0.792677 3.311605
v -6.551385 0.792677 3.604150
v -1.379363 -0.194497 0.179755
v -1.350521 -0.194497 0.472299
v -1.379363 0.792677 0.179755
v -1.350521 0.792677 0.472299
v -6.580228 0.462477 3.311605
v -6.580228 0.133419 3.311605
v -6.551385 -0.065353 3.604150
v -6.551385 0.661248 3.604150
v -1.379363 -0.065353 0.179755
v -1.379363 0.661248 0.179755
v -1.350521 0.661248 0.472299
v -1.350521 -0.065353 0.472299
v -6.523673 0.661248 3.885232
v -6.523673 0.792677 3.885232
v -1.322809 0.792677 0.753381
v -1.322809 -0.065353 0.753381
v -1.322809 -0.194497 0.753381
v -6.523673 -0.194497 3.885232
v -6.523673 -0.065353 3.885232
v -1.322809 0.661248 0.753381
v -6.482874 0.661248 4.299062
v -6.482874 0.792677 4.299062
v -1.282009 0.792677 1.167212
v -1.282009 -0.065353 1.167212
v -1.282009 -0.194497 1.167212
v -6.482874 -0.194497 4.299062
v -6.482874 -0.065353 4.299062
v -1.282009 0.661248 1.167212
v -6.551385 -0.065353 3.604150
v -6.551385 0.661248 3.604150
v -1.350521 0.661248 0.472299
v -1.350521 -0.065353 0.472299
v -6.551385 -0.065353 3.604150
v -6.551385 0.661248 3.604150
v -1.350521 0.661248 0.472299
v -1.350521 -0.065353 0.472299
v -6.551385 -0.065353 3.604150
v -6.551385 0.661248 3.604150
v -1.350521 0.661248 0.472299
v -1.350521 -0.065353 0.472299
v -1.350521 0.661248 0.773377
v -1.350521 -0.065353 0.773377
v -1.350521 0.661248 0.773377
v -1.350521 -0.065353 0.773377
vn -0.9952 -0.0000 0.0981
vn -0.0000 1.0000 -0.0000
vn 0.9952 -0.0000 -0.0981
vn -0.0000 -1.0000 -0.0000
vn -0.5159 -0.0000 -0.8567
vn -0.0000 -0.0000 1.0000
vn 0.5159 -0.0000 0.8567
vn 1.0000 -0.0000 -0.0000
vn -1.0000 -0.0000 -0.0000
s 0
f 9//1 12//1 4//1 3//1
f 3//2 4//2 8//2 7//2
f 13//3 16//3 6//3 5//3
f 5//4 6//4 2//4 1//4
f 10//5 13//5 5//5 1//5
f 15//3 8//3 19//3 24//3
f 12//4 15//4 24//4 17//4
f 11//6 16//6 36//6 33//6
f 3//5 7//5 14//5 9//5
f 9//5 14//5 13//5 10//5
f 7//3 8//3 15//3 14//3
f 14//3 15//3 16//3 13//3
f 1//1 2//1 11//1 10//1
f 10//1 11//1 12//1 9//1
f 23//1 22//1 30//1 31//1
f 17//4 24//4 32//4 25//4
f 8//2 4//2 18//2 19//2
f 11//1 2//1 22//1 23//1
f 16//2 11//2 23//2 20//2
f 6//3 16//3 20//3 21//3
f 4//1 12//1 17//1 18//1
f 2//4 6//4 21//4 22//4
f 28//7 31//7 30//7 29//7
f 27//7 26//7 25//7 32//7
f 21//3 20//3 28//3 29//3
f 18//1 17//1 25//1 26//1
f 20//2 23//2 31//2 28//2
f 24//3 19//3 27//3 32//3
f 22//4 21//4 29//4 30//4
f 19//2 18//2 26//2 27//2
f 33//6 36//6 40//6 37//6
f 16//8 15//8 45//8 46//8
f 12//6 11//6 33//6 34//6
f 15//6 12//6 34//6 35//6
f 39//6 38//6 42//6 43//6
f 36//6 35//6 39//6 40//6
f 35//6 34//6 38//6 39//6
f 34//6 33//6 37//6 38//6
f 43//7 42//7 41//7 44//7
f 38//6 37//6 41//6 42//6
f 37//6 40//6 44//6 41//6
f 40//6 39//6 43//6 44//6
f 46//6 45//6 47//6 48//6
f 35//9 36//9 48//9 47//9
f 15//6 35//6 47//6 45//6
f 36//6 16//6 46//6 48//6
